0
SECTION
2
HEADER
9
$ACADVER
1
AC1006
9
$INSUNITS
70
6
0
ENDSEC
0
SECTION
2
ENTITIES
0
LINE
8
0
62
255
10
0.048096
20
0.022074
30
0.000000
11
0.051953
21
0.026670
31
0.000000
0
LINE
8
0
62
255
10
0.051953
20
0.026670
30
0.000000
11
0.074934
21
0.007387
31
0.000000
0
LINE
8
0
62
255
10
0.071077
20
0.002790
30
0.000000
11
0.048096
21
0.022074
31
0.000000
0
LINE
8
0
62
255
10
0.074934
20
0.007387
30
0.000000
11
0.071077
21
0.002790
31
0.000000
0
LINE
8
0
62
255
10
0.074934
20
0.007387
30
0.000000
11
0.075700
21
0.006744
31
0.000000
0
LINE
8
0
62
255
10
0.075700
20
0.006744
30
0.000000
11
0.075959
21
0.002499
31
0.000000
0
LINE
8
0
62
255
10
0.046130
20
0.025479
30
0.000000
11
0.050421
21
0.027956
31
0.000000
0
LINE
8
0
62
255
10
0.048096
20
0.022074
30
0.000000
11
0.046130
21
0.025479
31
0.000000
0
LINE
8
0
62
255
10
0.050421
20
0.027956
30
0.000000
11
0.051953
21
0.026670
31
0.000000
0
LINE
8
0
62
255
10
0.043864
20
0.061202
30
0.000000
11
0.037955
21
0.060160
31
0.000000
0
LINE
8
0
62
255
10
0.043165
20
0.030616
30
0.000000
11
0.045130
21
0.027211
31
0.000000
0
LINE
8
0
62
255
10
0.075959
20
0.002499
30
0.000000
11
0.071377
21
0.002500
31
0.000000
0
LINE
8
0
62
255
10
0.049073
20
0.031657
30
0.000000
11
0.043864
21
0.061202
31
0.000000
0
LINE
8
0
62
255
10
0.043165
20
0.030616
30
0.000000
11
0.049073
21
0.031657
31
0.000000
0
LINE
8
0
62
255
10
0.037955
20
0.060160
30
0.000000
11
0.043165
21
0.030616
31
0.000000
0
LINE
8
0
62
255
10
0.071377
20
0.002500
30
0.000000
11
0.071077
21
0.002790
31
0.000000
0
LINE
8
0
62
255
10
0.049421
20
0.029688
30
0.000000
11
0.049073
21
0.031657
31
0.000000
0
LINE
8
0
62
255
10
0.045130
20
0.027211
30
0.000000
11
0.049421
21
0.029688
31
0.000000
0
LINE
8
0
62
255
10
0.038500
20
0.066684
30
0.000000
11
0.015000
21
0.025981
31
0.000000
0
ARC
8
0
62
255
10
0.000000
20
0.000000
30
0.000000
40
0.030000
50
0.000000
51
30.000000
0
LINE
8
0
62
255
10
0.043864
20
0.061202
30
0.000000
11
0.043690
21
0.062186
31
0.000000
0
ARC
8
0
62
255
10
0.000000
20
0.000000
30
0.000000
40
0.030000
50
30.000000
51
60.000000
0
LINE
8
0
62
255
10
0.040143
20
0.064533
30
0.000000
11
0.037854
21
0.060564
31
0.000000
0
LINE
8
0
62
255
10
0.037854
20
0.060564
30
0.000000
11
0.037955
21
0.060160
31
0.000000
0
LINE
8
0
62
255
10
0.030000
20
0.000000
30
0.000000
11
0.077000
21
0.000000
31
0.000000
0
ARC
8
0
62
255
10
0.000000
20
0.000000
30
0.000000
40
0.077000
50
0.000000
51
30.000000
0
LINE
8
0
62
255
10
0.043690
20
0.062186
30
0.000000
11
0.040143
21
0.064533
31
0.000000
0
ARC
8
0
62
255
10
0.000000
20
0.000000
30
0.000000
40
0.077000
50
30.000000
51
60.000000
0
LINE
8
0
62
255
10
0.015000
20
0.025981
30
0.000000
11
0.000000
21
0.000000
31
0.000000
0
LINE
8
0
62
255
10
0.000000
20
0.000000
30
0.000000
11
0.030000
21
0.000000
31
0.000000
0
ENDSEC
0
EOF
